<svg width="150" height="60" viewBox="0 0 150 60" fill="none" xmlns="http://www.w3.org/2000/svg">
<g filter="url(#filter0_d_4_113)">
<rect x="8" y="4" width="134" height="44" rx="22" fill="white"/>
<path d="M43.1659 32.5923C42.2784 32.5923 41.5315 32.3638 40.9252 31.9069C40.3277 31.4499 39.884 30.8612 39.594 30.1407C39.304 29.4201 39.159 28.6601 39.159 27.8604C39.159 27.0432 39.304 26.2744 39.594 25.5538C39.8927 24.8245 40.3497 24.2314 40.9648 23.7745C41.5886 23.3088 42.3619 23.0759 43.2845 23.0759C44.3214 23.0759 45.1606 23.3615 45.802 23.9326C46.4523 24.495 46.9004 25.2112 47.1464 26.0811H45.7098C45.5428 25.5187 45.2572 25.0837 44.853 24.7762C44.4576 24.4686 43.9348 24.3149 43.2845 24.3149C42.4146 24.3149 41.738 24.6356 41.2547 25.2771C40.7802 25.9185 40.543 26.7884 40.543 27.8868C40.543 29.0115 40.7934 29.8902 41.2943 30.5229C41.7951 31.1556 42.4805 31.4719 43.3504 31.4719C43.8689 31.4719 44.3126 31.3621 44.6817 31.1424C45.0595 30.9227 45.3451 30.624 45.5384 30.2461C45.7317 29.8683 45.8328 29.4465 45.8416 28.9808L45.8548 28.6645H43.4823V27.6627H47.1596V32.5H46.1052V31.0238H45.9997C45.8679 31.2522 45.7273 31.4631 45.578 31.6564C45.4374 31.841 45.1606 32.0431 44.7476 32.2627C44.3346 32.4824 43.8074 32.5923 43.1659 32.5923ZM51.8364 32.5923C51.1158 32.5923 50.5095 32.4209 50.0174 32.0782C49.5254 31.7355 49.1607 31.2918 48.9235 30.747C48.6862 30.1934 48.5676 29.6047 48.5676 28.9808C48.5676 28.3569 48.6862 27.7726 48.9235 27.2278C49.1607 26.6742 49.5254 26.2261 50.0174 25.8834C50.5183 25.5407 51.129 25.3693 51.8495 25.3693C52.7985 25.3693 53.5542 25.6813 54.1166 26.3051C54.679 26.9202 54.9601 27.8165 54.9601 28.994V29.3762H49.8988V29.4685C49.8988 29.82 49.9779 30.1495 50.1361 30.457C50.2942 30.7646 50.5183 31.015 50.8083 31.2083C51.0982 31.3928 51.4321 31.4851 51.81 31.4851C52.223 31.4851 52.5789 31.384 52.8776 31.1819C53.1764 30.9711 53.3917 30.6899 53.5235 30.3384H54.8679C54.6921 30.9886 54.3451 31.529 53.8266 31.9596C53.3082 32.3814 52.6448 32.5923 51.8364 32.5923ZM53.6289 28.4404C53.5938 27.7286 53.4136 27.2146 53.0885 26.8983C52.7722 26.5731 52.3504 26.4106 51.8232 26.4106C51.2608 26.4106 50.8083 26.5951 50.4656 26.9642C50.1317 27.3332 49.9559 27.8253 49.9384 28.4404H53.6289ZM58.6119 26.6347V30.3516C58.6119 30.6767 58.6251 30.9139 58.6514 31.0633C58.6866 31.2127 58.77 31.3313 58.9019 31.4192C59.0424 31.5071 59.2709 31.551 59.5872 31.551C59.8069 31.551 60.0222 31.5246 60.2331 31.4719V32.4341C60.1716 32.4605 60.0266 32.4868 59.7981 32.5132C59.5697 32.5395 59.3412 32.5527 59.1127 32.5527C58.5592 32.5527 58.1462 32.4736 57.8738 32.3155C57.6014 32.1485 57.4256 31.9376 57.3465 31.6828C57.2763 31.4192 57.2411 31.0765 57.2411 30.6547L57.2543 26.6347H56.0021V25.5538H57.2543V23.2736H58.6119V25.5538H60.2331V26.6347H58.6119ZM67.9808 32.6054C67.2602 32.6054 66.6408 32.4605 66.1223 32.1705C65.6127 31.8717 65.226 31.4895 64.9624 31.0238C64.7076 30.5581 64.5802 30.0704 64.5802 29.5607V29.4948H66.0828V29.5607C66.0828 29.8419 66.1487 30.1231 66.2805 30.4043C66.4123 30.6767 66.6232 30.9095 66.9132 31.1029C67.2031 31.2874 67.5678 31.3797 68.0071 31.3797C68.5432 31.3797 68.9781 31.2435 69.312 30.9711C69.6547 30.6987 69.8261 30.3296 69.8261 29.8639C69.8261 29.4773 69.6943 29.1697 69.4306 28.9412C69.1758 28.7128 68.8507 28.559 68.4553 28.4799L67.19 28.2295C66.6364 28.1153 66.1004 27.8824 65.5819 27.5309C65.0723 27.1707 64.8175 26.5731 64.8175 25.7384C64.8175 25.2024 64.9449 24.7323 65.1997 24.3281C65.4633 23.9239 65.828 23.6163 66.2937 23.4054C66.7594 23.1857 67.291 23.0759 67.8885 23.0759C68.5739 23.0759 69.1626 23.2121 69.6547 23.4845C70.1468 23.7569 70.5158 24.1128 70.7619 24.5521C71.0167 24.9827 71.1441 25.4352 71.1441 25.9097V25.9624H69.6415V25.9229C69.6415 25.6857 69.5844 25.4396 69.4702 25.1848C69.356 24.93 69.1626 24.7147 68.8902 24.5389C68.6266 24.3544 68.2795 24.2622 67.849 24.2622C67.3393 24.2622 66.9351 24.4027 66.6364 24.6839C66.3464 24.9563 66.2014 25.299 66.2014 25.712C66.2014 26.0723 66.3244 26.3666 66.5705 26.5951C66.8253 26.8236 67.1548 26.9773 67.559 27.0564L68.7321 27.2937C69.4087 27.4343 69.9974 27.6935 70.4983 28.0713C71.0079 28.4492 71.2627 29.0335 71.2627 29.8243C71.2627 30.3691 71.1221 30.8524 70.841 31.2742C70.5686 31.696 70.1819 32.0255 69.6811 32.2627C69.189 32.4912 68.6222 32.6054 67.9808 32.6054ZM74.8688 26.6347V30.3516C74.8688 30.6767 74.8819 30.9139 74.9083 31.0633C74.9434 31.2127 75.0269 31.3313 75.1587 31.4192C75.2993 31.5071 75.5278 31.551 75.8441 31.551C76.0638 31.551 76.2791 31.5246 76.49 31.4719V32.4341C76.4285 32.4605 76.2835 32.4868 76.055 32.5132C75.8265 32.5395 75.5981 32.5527 75.3696 32.5527C74.816 32.5527 74.403 32.4736 74.1306 32.3155C73.8582 32.1485 73.6825 31.9376 73.6034 31.6828C73.5331 31.4192 73.498 31.0765 73.498 30.6547L73.5112 26.6347H72.259V25.5538H73.5112V23.2736H74.8688V25.5538H76.49V26.6347H74.8688ZM80.5805 32.5923C79.9829 32.5923 79.4689 32.4385 79.0383 32.1309C78.6078 31.8234 78.2783 31.3972 78.0498 30.8524C77.8301 30.3076 77.7203 29.6881 77.7203 28.994C77.7203 28.291 77.8345 27.6671 78.063 27.1223C78.2914 26.5775 78.621 26.1514 79.0515 25.8438C79.4909 25.5275 80.0137 25.3693 80.62 25.3693C81.2263 25.3693 81.7096 25.5099 82.0699 25.7911C82.4301 26.0723 82.7025 26.3974 82.8871 26.7665H82.9793V25.5538H84.3501V32.5H82.9793V31.1556H82.8871C82.6937 31.5422 82.4126 31.8805 82.0435 32.1705C81.6745 32.4517 81.1868 32.5923 80.5805 32.5923ZM81.0418 31.4587C81.6657 31.4587 82.1402 31.2215 82.4653 30.747C82.7992 30.2637 82.9661 29.675 82.9661 28.9808C82.9661 28.2866 82.7992 27.7023 82.4653 27.2278C82.1402 26.7533 81.6657 26.516 81.0418 26.516C80.4091 26.516 79.9302 26.7533 79.6051 27.2278C79.28 27.7023 79.1174 28.2822 79.1174 28.9676C79.1174 29.6706 79.2756 30.2637 79.5919 30.747C79.917 31.2215 80.4003 31.4587 81.0418 31.4587ZM86.2104 25.5538H87.568V26.661H87.6471C87.7613 26.3535 87.9634 26.0942 88.2534 25.8834C88.5522 25.6637 88.9344 25.5538 89.4001 25.5538C89.5231 25.5538 89.6286 25.5582 89.7164 25.567C89.8043 25.5758 89.8922 25.5978 89.9801 25.6329L89.9273 26.9246C89.6901 26.8543 89.444 26.8192 89.1892 26.8192C88.6708 26.8192 88.271 26.9686 87.9898 27.2673C87.7086 27.5573 87.568 28.0406 87.568 28.7172V32.5H86.2104V25.5538ZM93.1336 26.6347V30.3516C93.1336 30.6767 93.1468 30.9139 93.1732 31.0633C93.2083 31.2127 93.2918 31.3313 93.4236 31.4192C93.5642 31.5071 93.7926 31.551 94.109 31.551C94.3286 31.551 94.5439 31.5246 94.7548 31.4719V32.4341C94.6933 32.4605 94.5483 32.4868 94.3199 32.5132C94.0914 32.5395 93.8629 32.5527 93.6345 32.5527C93.0809 32.5527 92.6679 32.4736 92.3955 32.3155C92.1231 32.1485 91.9474 31.9376 91.8683 31.6828C91.798 31.4192 91.7628 31.0765 91.7628 30.6547L91.776 26.6347H90.5239V25.5538H91.776V23.2736H93.1336V25.5538H94.7548V26.6347H93.1336ZM99.3198 32.5923C98.5993 32.5923 97.993 32.4209 97.5009 32.0782C97.0088 31.7355 96.6442 31.2918 96.4069 30.747C96.1697 30.1934 96.051 29.6047 96.051 28.9808C96.051 28.3569 96.1697 27.7726 96.4069 27.2278C96.6442 26.6742 97.0088 26.2261 97.5009 25.8834C98.0018 25.5407 98.6125 25.3693 99.333 25.3693C100.282 25.3693 101.038 25.6813 101.6 26.3051C102.162 26.9202 102.444 27.8165 102.444 28.994V29.3762H97.3823V29.4685C97.3823 29.82 97.4614 30.1495 97.6195 30.457C97.7777 30.7646 98.0018 31.015 98.2917 31.2083C98.5817 31.3928 98.9156 31.4851 99.2935 31.4851C99.7064 31.4851 100.062 31.384 100.361 31.1819C100.66 30.9711 100.875 30.6899 101.007 30.3384H102.351C102.176 30.9886 101.829 31.529 101.31 31.9596C100.792 32.3814 100.128 32.5923 99.3198 32.5923ZM101.112 28.4404C101.077 27.7286 100.897 27.2146 100.572 26.8983C100.256 26.5731 99.8339 26.4106 99.3066 26.4106C98.7443 26.4106 98.2917 26.5951 97.949 26.9642C97.6151 27.3332 97.4394 27.8253 97.4218 28.4404H101.112ZM106.543 32.5923C105.946 32.5923 105.432 32.4385 105.001 32.1309C104.571 31.8234 104.241 31.3972 104.013 30.8524C103.793 30.3076 103.683 29.6881 103.683 28.994C103.683 28.291 103.793 27.6671 104.013 27.1223C104.241 26.5775 104.571 26.1514 105.001 25.8438C105.441 25.5275 105.964 25.3693 106.57 25.3693C107.176 25.3693 107.659 25.5099 108.02 25.7911C108.38 26.0723 108.652 26.3974 108.837 26.7665H108.929V22.6146H110.313V32.5H108.929V31.1556H108.837C108.644 31.5422 108.362 31.8805 107.993 32.1705C107.624 32.4517 107.141 32.5923 106.543 32.5923ZM106.992 31.4587C107.616 31.4587 108.09 31.2215 108.415 30.747C108.749 30.2725 108.916 29.6881 108.916 28.994C108.916 28.2998 108.749 27.7155 108.415 27.241C108.09 26.7665 107.616 26.5292 106.992 26.5292C106.35 26.5292 105.871 26.7665 105.555 27.241C105.239 27.7067 105.08 28.2866 105.08 28.9808C105.08 29.6838 105.239 30.2725 105.555 30.747C105.88 31.2215 106.359 31.4587 106.992 31.4587Z" fill="#F3603B"/>
</g>
<defs>
<filter id="filter0_d_4_113" x="0" y="0" width="150" height="60" filterUnits="userSpaceOnUse" color-interpolation-filters="sRGB">
<feFlood flood-opacity="0" result="BackgroundImageFix"/>
<feColorMatrix in="SourceAlpha" type="matrix" values="0 0 0 0 0 0 0 0 0 0 0 0 0 0 0 0 0 0 127 0" result="hardAlpha"/>
<feOffset dy="4"/>
<feGaussianBlur stdDeviation="4"/>
<feColorMatrix type="matrix" values="0 0 0 0 0 0 0 0 0 0 0 0 0 0 0 0 0 0 0.25 0"/>
<feBlend mode="normal" in2="BackgroundImageFix" result="effect1_dropShadow_4_113"/>
<feBlend mode="normal" in="SourceGraphic" in2="effect1_dropShadow_4_113" result="shape"/>
</filter>
</defs>
</svg>
