<svg width="17" height="10" viewBox="0 0 17 10" fill="none" xmlns="http://www.w3.org/2000/svg">
<path d="M4.37533 9.88243C3.48784 9.88243 2.74094 9.65396 2.13463 9.19704C1.53712 8.74011 1.09337 8.15138 0.803398 7.43084C0.513426 6.7103 0.368439 5.95023 0.368439 5.15061C0.368439 4.33341 0.513426 3.56455 0.803398 2.84401C1.10216 2.11468 1.55908 1.52156 2.17418 1.06463C2.79806 0.59892 3.57131 0.366064 4.49395 0.366064C5.53082 0.366064 6.36999 0.651642 7.01144 1.2228C7.66168 1.78517 8.10982 2.50131 8.35586 3.37123H6.91918C6.75222 2.80886 6.46664 2.3739 6.06244 2.06636C5.66702 1.75881 5.14419 1.60504 4.49395 1.60504C3.62404 1.60504 2.94743 1.92576 2.46415 2.56722C1.98965 3.20867 1.7524 4.07859 1.7524 5.17697C1.7524 6.30171 2.00283 7.18041 2.50369 7.81308C3.00455 8.44574 3.68994 8.76208 4.55986 8.76208C5.07829 8.76208 5.52204 8.65224 5.89109 8.43256C6.26893 8.21289 6.55451 7.91413 6.74783 7.53629C6.94114 7.15844 7.04219 6.73667 7.05098 6.27095L7.06416 5.95462H4.69166V4.9529H8.36904V9.79016H7.31459V8.31394H7.20915C7.07734 8.5424 6.93675 8.75329 6.78737 8.94661C6.64678 9.13113 6.36999 9.33324 5.957 9.55291C5.544 9.77259 5.01678 9.88243 4.37533 9.88243ZM13.0458 9.88243C12.334 9.88243 11.7321 9.71547 11.24 9.38156C10.748 9.04766 10.3789 8.6083 10.1329 8.06351C9.89561 7.50992 9.77699 6.9168 9.77699 6.28413C9.77699 5.64268 9.89561 5.04955 10.1329 4.50476C10.3789 3.95117 10.748 3.50743 11.24 3.17352C11.7321 2.83083 12.334 2.65948 13.0458 2.65948C13.7575 2.65948 14.3594 2.83083 14.8515 3.17352C15.3436 3.50743 15.7126 3.95117 15.9587 4.50476C16.2047 5.04955 16.3277 5.63829 16.3277 6.27095C16.3277 6.90362 16.2047 7.49674 15.9587 8.05033C15.7126 8.59512 15.3436 9.03887 14.8515 9.38156C14.3594 9.71547 13.7575 9.88243 13.0458 9.88243ZM13.0458 8.7489C13.6521 8.7489 14.1222 8.51165 14.4561 8.03715C14.7988 7.56265 14.9701 6.96952 14.9701 6.25777C14.9701 5.54602 14.7988 4.95729 14.4561 4.49158C14.1222 4.02586 13.6521 3.79301 13.0458 3.79301C12.4482 3.79301 11.9781 4.03026 11.6354 4.50476C11.2928 4.97047 11.1214 5.55481 11.1214 6.25777C11.1214 6.96952 11.2884 7.56265 11.6223 8.03715C11.965 8.51165 12.4395 8.7489 13.0458 8.7489Z" fill="white"/>
</svg>
